{"asset":{"version":"2.0","generator":"THREE.GLTFExporter"},"scenes":[{"nodes":[0],"name":"AuxScene"}],"scene":0,"nodes":[{"mesh":0}],"bufferViews":[{"buffer":0,"byteOffset":0,"byteLength":216,"target":34962,"byteStride":12},{"buffer":0,"byteOffset":216,"byteLength":216,"target":34962,"byteStride":12}],"buffers":[{"byteLength":432,"uri":"data:application/octet-stream;base64,"}],"accessors":[{"bufferView":0,"componentType":5126,"count":18,"max":[2.509999990463257,0.9399999976158142,-0.49000000953674316],"min":[-2.4200000762939453,0.9399999976158142,-5.420000076293945],"type":"VEC3"},{"bufferView":1,"componentType":5126,"count":18,"max":[0,1,0],"min":[0,1,0],"type":"VEC3"}],"materials":[{"pbrMetallicRoughness":{"baseColorFactor":[0.5019607843137255,0.5019607843137255,0.5019607843137255,1],"metallicFactor":0,"roughnessFactor":1}}],"meshes":[{"primitives":[{"mode":4,"attributes":{"POSITION":0,"NORMAL":1},"material":0}]}]}